<svg xmlns="http://www.w3.org/2000/svg" xmlns:xlink="http://www.w3.org/1999/xlink" width="48" height="48" viewBox="0 0 48 48">
  <defs>
    <clipPath id="clip-path">
      <rect id="Rectangle_2" data-name="Rectangle 2" width="24" height="24" transform="translate(12 12)" fill="#fff"/>
    </clipPath>
  </defs>
  <g id="Group_7" data-name="Group 7" transform="translate(-171 -542)">
    <path id="Path_12" data-name="Path 12" d="M24,0A24,24,0,1,1,0,24,24,24,0,0,1,24,0Z" transform="translate(171 542)" fill="#0f0f0f"/>
    <g id="Group_4" data-name="Group 4" transform="translate(172 541)" clip-path="url(#clip-path)">
      <path id="Path_8" data-name="Path 8" d="M22.048,25.869A12.634,12.634,0,0,1,19.41,22.06a.749.749,0,0,1,.166-.827l.819-.819a1.53,1.53,0,0,0,.085-2.206l-1.174-1.173a2,2,0,0,0-2.828,0l-.652.651a3.194,3.194,0,0,0-.85,2.87,15.715,15.715,0,0,0,4.461,7.923A15.715,15.715,0,0,0,27.36,32.94a3.194,3.194,0,0,0,2.87-.85l.651-.651a2,2,0,0,0,0-2.828l-1.173-1.173a1.5,1.5,0,0,0-2.121,0l-.9.9a.749.749,0,0,1-.827.166A12.674,12.674,0,0,1,22.048,25.869Z" fill="none" stroke="#fff" stroke-linecap="round" stroke-linejoin="round" stroke-width="1.5"/>
    </g>
  </g>
</svg>
